<svg preserveAspectRatio="xMidYMid meet" data-bbox="1 3 1407.5 646.7" viewBox="0 0 1409.6 650.7" xmlns="http://www.w3.org/2000/svg" data-type="ugc" role="presentation" aria-hidden="true" aria-labelledby="svgcid-jm3sexkmllv"><title id="svgcid-jm3sexkmllv"></title>
    <g>
        <path fill="none" stroke="#898b8d" stroke-width="3.963" stroke-linecap="round" stroke-linejoin="round" stroke-dasharray="0,11.4888" d="M702.5 111.3v173.9"></path>
        <path fill="none" stroke="#898b8d" stroke-width="3.963" stroke-linecap="round" stroke-linejoin="round" stroke-dasharray="0,11.4888" d="M702.5 305.9v112.7"></path>
        <path fill="none" stroke="#898b8d" stroke-width="3.963" stroke-linecap="round" stroke-linejoin="round" stroke-dasharray="0,11.4888" d="M561.3 296.9h284.3"></path>
        <path fill="#ffffff" stroke="#84606a" stroke-width="6" stroke-miterlimit="10" d="M913.3 3v165.7H493.2V3h420.1z"></path>
        <path d="M666.4 85.3c0-8.2 6.2-13.8 14.4-13.8 6.4 0 9.9 3.6 11.6 7.2l-5.9 2.8c-.9-2.1-3.2-3.9-5.7-3.9-4.4 0-7.4 3.4-7.4 7.7s3.1 7.7 7.4 7.7c2.6 0 4.8-1.8 5.7-3.9l5.9 2.8c-1.7 3.4-5.2 7.2-11.6 7.2-8.2 0-14.4-5.6-14.4-13.8z" fill="#84606a"></path>
        <path d="M693 98.6V71.9h19.6v6h-12.7v4.2h12.4v6h-12.4v4.5h12.7v6H693z" fill="#84606a"></path>
        <path d="M712.8 85.3c0-8.1 6.1-13.8 14.3-13.8s14.2 5.7 14.2 13.8-6.1 13.8-14.2 13.8-14.3-5.7-14.3-13.8zm21.6 0c0-4.4-2.8-7.7-7.2-7.7s-7.3 3.4-7.3 7.7c0 4.3 2.8 7.7 7.3 7.7 4.3 0 7.2-3.4 7.2-7.7z" fill="#84606a"></path>
        <path fill="none" stroke="#f2a074" stroke-width="4" stroke-miterlimit="10" d="M540.3 216.9V377H120.2V216.9h420.1z"></path>
        <path fill="none" stroke="#f2a074" stroke-width="4" stroke-miterlimit="10" d="M1286.7 216.9V377H866.6V216.9h420.1z"></path>
        <path d="m212.5 304.7 2.7-3.9c1.4 1.4 3.7 2.6 6.4 2.6 1.8 0 2.9-.7 2.9-1.6 0-2.7-11.3-.5-11.3-8.2 0-3.4 2.9-6.4 8-6.4 3.2 0 6 1 8.1 2.8l-2.8 3.7c-1.7-1.4-3.9-2.1-5.8-2.1-1.5 0-2.2.6-2.2 1.4 0 2.5 11.3.7 11.3 8.1 0 4-3 6.7-8.3 6.7-4.2.1-7-1.2-9-3.1z" fill="#f2a074"></path>
        <path d="M230.3 307.5v-20h10c4.5 0 7 3 7 6.7 0 3.6-2.5 6.6-7 6.6h-4.9v6.7h-5.1zm11.8-13.4c0-1.4-1-2.2-2.4-2.2h-4.2v4.3h4.2c1.3.1 2.4-.7 2.4-2.1z" fill="#f2a074"></path>
        <path d="M247.8 307.5v-20h14.7v4.5H253v3.1h9.3v4.5H253v3.4h9.5v4.5h-14.7z" fill="#f2a074"></path>
        <path d="M262.7 297.5c0-6.2 4.7-10.3 10.8-10.3 4.8 0 7.4 2.7 8.7 5.4l-4.4 2.1c-.7-1.6-2.4-2.9-4.3-2.9-3.3 0-5.6 2.5-5.6 5.8s2.3 5.8 5.6 5.8c1.9 0 3.6-1.3 4.3-2.9l4.4 2.1c-1.3 2.6-3.9 5.4-8.7 5.4-6.1-.1-10.8-4.3-10.8-10.5z" fill="#f2a074"></path>
        <path d="M282.7 307.5v-20h5.2v20h-5.2z" fill="#f2a074"></path>
        <path d="m303.2 307.5-1-2.9h-7.9l-1 2.9h-5.8l7.5-20h6.5l7.6 20h-5.9zm-4.9-14.9-2.5 7.5h5.1l-2.6-7.5z" fill="#f2a074"></path>
        <path d="M308.7 307.5v-20h5.2V303h8v4.5h-13.2z" fill="#f2a074"></path>
        <path d="m342.3 307.5-1-2.9h-7.9l-1 2.9h-5.9l7.5-20h6.5l7.6 20h-5.8zm-5-14.9-2.5 7.5h5.1l-2.6-7.5z" fill="#f2a074"></path>
        <path d="M347.8 307.5v-20h8.4c6.3 0 10.8 3.8 10.8 10s-4.5 10-10.8 10h-8.4zm13.9-10c0-3.1-1.9-5.5-5.5-5.5h-3.3v11h3.2c3.6 0 5.6-2.6 5.6-5.5z" fill="#f2a074"></path>
        <path d="m373.2 307.5-7.5-20h5.9l4.9 14.4 4.9-14.4h5.9l-7.6 20h-6.5z" fill="#f2a074"></path>
        <path d="M386.9 307.5v-20h5.2v20h-5.2z" fill="#f2a074"></path>
        <path d="m392.4 304.7 2.7-3.9c1.4 1.4 3.7 2.6 6.4 2.6 1.8 0 2.9-.7 2.9-1.6 0-2.7-11.3-.5-11.3-8.2 0-3.4 2.9-6.4 8-6.4 3.2 0 6 1 8.1 2.8l-2.8 3.7c-1.7-1.4-3.9-2.1-5.8-2.1-1.5 0-2.2.6-2.2 1.4 0 2.5 11.3.7 11.3 8.1 0 4-3 6.7-8.3 6.7-4.1.1-7-1.2-9-3.1z" fill="#f2a074"></path>
        <path d="M409.2 297.5c0-6.1 4.6-10.3 10.7-10.3s10.7 4.3 10.7 10.3c0 6.1-4.6 10.3-10.7 10.3-6.1.1-10.7-4.2-10.7-10.3zm16.2 0c0-3.3-2.1-5.8-5.4-5.8-3.3 0-5.5 2.5-5.5 5.8 0 3.2 2.1 5.8 5.5 5.8 3.2 0 5.4-2.6 5.4-5.8z" fill="#f2a074"></path>
        <path d="m442.6 307.5-3.4-6.7h-2.6v6.7h-5.2v-20h10c4.4 0 7 2.9 7 6.7 0 3.5-2.1 5.3-4 6l4.1 7.3h-5.9zm.6-13.4c0-1.4-1.1-2.1-2.5-2.1h-4.1v4.3h4.1c1.3 0 2.5-.8 2.5-2.2z" fill="#f2a074"></path>
        <path d="M973.2 307.5v-20h5.2V303h8v4.5h-13.2z" fill="#f2a074"></path>
        <path d="M987.3 307.5v-20h14.7v4.5h-9.5v3.1h9.3v4.5h-9.3v3.4h9.5v4.5h-14.7z" fill="#f2a074"></path>
        <path d="M1002.1 297.5c0-6.4 4.9-10.3 10.8-10.3 4.5 0 7.2 2.4 8.5 4.9l-4.3 2.2c-.7-1.3-2.3-2.5-4.2-2.5-3.3 0-5.6 2.5-5.6 5.8s2.3 5.8 5.6 5.8c1.5 0 3-.6 3.7-1.2v-1.6h-4.5V296h9.7v7.9c-2.2 2.4-5.1 3.9-8.8 3.9-6 .1-10.9-3.9-10.9-10.3z" fill="#f2a074"></path>
        <path d="m1036.6 307.5-1-2.9h-7.9l-1 2.9h-5.8l7.5-20h6.5l7.6 20h-5.9zm-4.9-14.9-2.5 7.5h5.1l-2.6-7.5z" fill="#f2a074"></path>
        <path d="M1042.2 307.5v-20h5.2V303h8v4.5h-13.2z" fill="#f2a074"></path>
        <path d="m1075.7 307.5-1-2.9h-7.9l-1 2.9h-5.8l7.5-20h6.5l7.6 20h-5.9zm-4.9-14.9-2.5 7.5h5.1l-2.6-7.5z" fill="#f2a074"></path>
        <path d="M1081.2 307.5v-20h8.4c6.3 0 10.8 3.8 10.8 10s-4.5 10-10.8 10h-8.4zm14-10c0-3.1-1.9-5.5-5.5-5.5h-3.3v11h3.2c3.5 0 5.6-2.6 5.6-5.5z" fill="#f2a074"></path>
        <path d="m1106.6 307.5-7.5-20h5.8l4.9 14.4 5-14.4h5.8l-7.6 20h-6.4z" fill="#f2a074"></path>
        <path d="M1120.3 307.5v-20h5.2v20h-5.2z" fill="#f2a074"></path>
        <path d="m1125.9 304.7 2.7-3.9c1.4 1.4 3.7 2.6 6.4 2.6 1.8 0 2.8-.7 2.8-1.6 0-2.7-11.3-.5-11.3-8.2 0-3.4 2.8-6.4 8-6.4 3.2 0 6 1 8.1 2.8l-2.8 3.7c-1.7-1.4-3.9-2.1-5.8-2.1-1.5 0-2.2.6-2.2 1.4 0 2.5 11.3.7 11.3 8.1 0 4-3 6.7-8.3 6.7-4.1.1-6.9-1.2-8.9-3.1z" fill="#f2a074"></path>
        <path d="M1142.7 297.5c0-6.1 4.6-10.3 10.7-10.3s10.7 4.3 10.7 10.3c0 6.1-4.6 10.3-10.7 10.3-6.1.1-10.7-4.2-10.7-10.3zm16.1 0c0-3.3-2.1-5.8-5.4-5.8-3.3 0-5.5 2.5-5.5 5.8 0 3.2 2.1 5.8 5.5 5.8 3.3 0 5.4-2.6 5.4-5.8z" fill="#f2a074"></path>
        <path d="m1176 307.5-3.4-6.7h-2.6v6.7h-5.2v-20h10c4.4 0 7 2.9 7 6.7 0 3.5-2.1 5.3-4 6l4.1 7.3h-5.9zm.6-13.4c0-1.4-1.1-2.1-2.5-2.1h-4.1v4.3h4.1c1.4 0 2.5-.8 2.5-2.2z" fill="#f2a074"></path>
        <path d="M71.5 549.6v-16.7h8.3c3.7 0 5.8 2.5 5.8 5.5s-2 5.5-5.8 5.5h-4v5.6h-4.3zm9.7-11.1c0-1.1-.9-1.8-2-1.8h-3.5v3.6h3.5c1.2 0 2-.7 2-1.8z" fill="#8c817c"></path>
        <path d="m95.3 549.6-2.8-5.6h-2.2v5.6H86v-16.7h8.3c3.7 0 5.8 2.4 5.8 5.5 0 2.9-1.8 4.4-3.3 5l3.4 6.1h-4.9zm.5-11.1c0-1.1-1-1.8-2.1-1.8h-3.4v3.6h3.4c1.2 0 2.1-.7 2.1-1.8z" fill="#8c817c"></path>
        <path d="M100.2 541.3c0-5.1 3.8-8.6 8.9-8.6s8.9 3.5 8.9 8.6-3.8 8.6-8.9 8.6-8.9-3.5-8.9-8.6zm13.5 0c0-2.7-1.8-4.8-4.5-4.8-2.8 0-4.5 2.1-4.5 4.8 0 2.7 1.8 4.8 4.5 4.8s4.5-2.1 4.5-4.8z" fill="#8c817c"></path>
        <path d="m117.3 548.4 1.8-3.3c.6.5 1.4 1 2.4 1 1.3 0 2.2-.9 2.2-2.3v-10.9h4.3v10.9c0 4.1-2.5 6-6.1 6-1.7.1-3.4-.3-4.6-1.4z" fill="#8c817c"></path>
        <path d="M129.5 549.6v-16.7h12.2v3.7h-7.9v2.6h7.7v3.7h-7.7v2.8h7.9v3.7h-12.2z" fill="#8c817c"></path>
        <path d="M141.9 541.3c0-5.1 3.9-8.6 9-8.6 4 0 6.2 2.3 7.3 4.5l-3.7 1.8c-.5-1.3-2-2.4-3.6-2.4-2.7 0-4.6 2.1-4.6 4.8 0 2.7 1.9 4.8 4.6 4.8 1.6 0 3-1.1 3.6-2.4l3.7 1.7c-1.1 2.1-3.2 4.5-7.3 4.5-5.1-.1-9-3.6-9-8.7z" fill="#8c817c"></path>
        <path d="M162.3 549.6v-12.9h-4.7V533h13.6v3.7h-4.6v12.9h-4.3z" fill="#8c817c"></path>
        <path d="M57.2 579.6v-10.8L53 579.6h-1.9l-4.2-10.8v10.8h-4.3v-16.7h6l3.5 9 3.5-9h6v16.7h-4.4z" fill="#8c817c"></path>
        <path d="m74.3 579.6-.8-2.4h-6.6l-.8 2.4h-4.9l6.3-16.7h5.4l6.3 16.7h-4.9zm-4.1-12.4-2.1 6.3h4.2l-2.1-6.3z" fill="#8c817c"></path>
        <path d="m90.3 579.6-7-9.6v9.6H79v-16.7h4.4l6.7 9.2v-9.2h4.3v16.7h-4.1z" fill="#8c817c"></path>
        <path d="m107.3 579.6-.8-2.4h-6.6l-.8 2.4h-4.9l6.3-16.7h5.4l6.3 16.7h-4.9zm-4.2-12.4-2.1 6.3h4.2l-2.1-6.3z" fill="#8c817c"></path>
        <path d="M111 571.3c0-5.3 4-8.6 9-8.6 3.7 0 6 2 7.1 4l-3.6 1.9c-.6-1.1-1.9-2.1-3.5-2.1-2.7 0-4.6 2.1-4.6 4.8 0 2.7 1.9 4.8 4.6 4.8 1.2 0 2.5-.5 3.1-1v-1.3h-3.7V570h8v6.6c-1.8 2-4.2 3.2-7.4 3.2-4.9.1-9-3.2-9-8.5z" fill="#8c817c"></path>
        <path d="M128.4 579.6v-16.7h12.2v3.7h-7.9v2.6h7.7v3.7h-7.7v2.8h7.9v3.7h-12.2z" fill="#8c817c"></path>
        <path d="M156.3 579.6v-10.8l-4.2 10.8h-1.9l-4.2-10.8v10.8h-4.3v-16.7h6l3.5 9 3.5-9h6v16.7h-4.4z" fill="#8c817c"></path>
        <path d="M162.1 579.6v-16.7h12.2v3.7h-7.9v2.6h7.7v3.7h-7.7v2.8h7.9v3.7h-12.2z" fill="#8c817c"></path>
        <path d="m186.7 579.6-7-9.6v9.6h-4.3v-16.7h4.4l6.7 9.2v-9.2h4.3v16.7h-4.1z" fill="#8c817c"></path>
        <path d="M196 579.6v-12.9h-4.7V563H205v3.7h-4.6v12.9H196z" fill="#8c817c"></path>
        <path d="M45.4 609.6v-16.7h7c5.2 0 9 3.1 9 8.3 0 5.2-3.8 8.3-9 8.3h-7zm11.6-8.3c0-2.6-1.5-4.6-4.6-4.6h-2.7v9.2h2.7c2.9 0 4.6-2.2 4.6-4.6z" fill="#8c817c"></path>
        <path d="M62 609.6v-16.7h12.2v3.7h-7.9v2.6H74v3.7h-7.7v2.8h7.9v3.7H62z" fill="#8c817c"></path>
        <path d="M75.3 609.6v-16.7h8.3c3.7 0 5.8 2.5 5.8 5.5s-2 5.5-5.8 5.5h-4v5.6h-4.3zm9.7-11.1c0-1.1-.9-1.8-2-1.8h-3.5v3.6H83c1.2 0 2-.7 2-1.8z" fill="#8c817c"></path>
        <path d="m101.1 609.6-.8-2.4h-6.6l-.8 2.4H88l6.3-16.7h5.4l6.3 16.7h-4.9zM97 597.2l-2.1 6.3h4.2l-2.1-6.3z" fill="#8c817c"></path>
        <path d="m115 609.6-2.8-5.6H110v5.6h-4.3v-16.7h8.3c3.7 0 5.8 2.4 5.8 5.5 0 2.9-1.8 4.4-3.3 5l3.4 6.1H115zm.5-11.1c0-1.1-1-1.8-2.1-1.8H110v3.6h3.4c1.2 0 2.1-.7 2.1-1.8z" fill="#8c817c"></path>
        <path d="M124.5 609.6v-12.9h-4.7V593h13.6v3.7h-4.6v12.9h-4.3z" fill="#8c817c"></path>
        <path d="M148.6 609.6v-10.8l-4.2 10.8h-1.9l-4.2-10.8v10.8H134v-16.7h6l3.5 9 3.5-9h6v16.7h-4.4z" fill="#8c817c"></path>
        <path d="M154.4 609.6v-16.7h12.2v3.7h-7.9v2.6h7.7v3.7h-7.7v2.8h7.9v3.7h-12.2z" fill="#8c817c"></path>
        <path d="m179 609.6-7-9.6v9.6h-4.3v-16.7h4.4l6.7 9.2v-9.2h4.3v16.7H179z" fill="#8c817c"></path>
        <path d="M188.4 609.6v-12.9h-4.7V593h13.6v3.7h-4.6v12.9h-4.3z" fill="#8c817c"></path>
        <path d="m1243.1 546.3 2.3-3.2c1.2 1.2 3 2.2 5.3 2.2 1.5 0 2.4-.6 2.4-1.4 0-2.3-9.4-.4-9.4-6.9 0-2.8 2.4-5.3 6.6-5.3 2.7 0 5 .8 6.8 2.3l-2.3 3.1c-1.4-1.1-3.2-1.7-4.9-1.7-1.2 0-1.8.5-1.8 1.2 0 2.1 9.4.6 9.4 6.8 0 3.3-2.5 5.6-6.9 5.6-3.5-.1-5.8-1.1-7.5-2.7z" fill="#8c817c"></path>
        <path d="M1269.2 548.6v-6.7h-6.9v6.7h-4.3v-16.7h4.3v6.2h6.9v-6.2h4.3v16.7h-4.3z" fill="#8c817c"></path>
        <path d="m1286.3 548.6-.8-2.4h-6.6l-.8 2.4h-4.9l6.3-16.7h5.4l6.3 16.7h-4.9zm-4.1-12.4-2.1 6.3h4.2l-2.1-6.3z" fill="#8c817c"></path>
        <path d="m1300.2 548.6-2.8-5.6h-2.2v5.6h-4.3v-16.7h8.3c3.7 0 5.8 2.4 5.8 5.5 0 2.9-1.8 4.4-3.3 5l3.4 6.1h-4.9zm.5-11.1c0-1.1-1-1.8-2.1-1.8h-3.4v3.6h3.4c1.1 0 2.1-.7 2.1-1.8z" fill="#8c817c"></path>
        <path d="M1305.9 548.6v-16.7h12.2v3.7h-7.9v2.6h7.7v3.7h-7.7v2.8h7.9v3.7h-12.2z" fill="#8c817c"></path>
        <path d="M1319.1 548.6v-16.7h7c5.2 0 9 3.1 9 8.3 0 5.2-3.8 8.3-9 8.3h-7zm11.7-8.3c0-2.6-1.5-4.6-4.6-4.6h-2.7v9.2h2.7c2.9 0 4.6-2.2 4.6-4.6z" fill="#8c817c"></path>
        <path d="m1235.7 576.3 2.3-3.2c1.2 1.2 3 2.2 5.3 2.2 1.5 0 2.4-.6 2.4-1.4 0-2.3-9.4-.4-9.4-6.9 0-2.8 2.4-5.3 6.6-5.3 2.7 0 5 .8 6.8 2.3l-2.3 3.1c-1.4-1.1-3.2-1.7-4.9-1.7-1.2 0-1.8.5-1.8 1.2 0 2.1 9.4.6 9.4 6.8 0 3.3-2.5 5.6-6.9 5.6-3.5-.1-5.8-1.1-7.5-2.7z" fill="#8c817c"></path>
        <path d="M1250.6 578.6v-16.7h12.2v3.7h-7.9v2.6h7.7v3.7h-7.7v2.8h7.9v3.7h-12.2z" fill="#8c817c"></path>
        <path d="m1273.1 578.6-2.8-5.6h-2.2v5.6h-4.3v-16.7h8.3c3.7 0 5.8 2.4 5.8 5.5 0 2.9-1.8 4.4-3.3 5l3.4 6.1h-4.9zm.4-11.1c0-1.1-1-1.8-2.1-1.8h-3.4v3.6h3.4c1.2 0 2.1-.7 2.1-1.8z" fill="#8c817c"></path>
        <path d="m1283.3 578.6-6.3-16.7h4.9l4.1 12 4.1-12h4.9l-6.3 16.7h-5.4z" fill="#8c817c"></path>
        <path d="M1294.7 578.6v-16.7h4.3v16.7h-4.3z" fill="#8c817c"></path>
        <path d="M1299.7 570.3c0-5.1 3.9-8.6 9-8.6 4 0 6.2 2.3 7.3 4.5l-3.7 1.8c-.5-1.3-2-2.4-3.6-2.4-2.7 0-4.6 2.1-4.6 4.8 0 2.7 1.9 4.8 4.6 4.8 1.6 0 3-1.1 3.6-2.4l3.7 1.7c-1.1 2.1-3.2 4.5-7.3 4.5-5.1-.1-9-3.6-9-8.7z" fill="#8c817c"></path>
        <path d="M1316.3 578.6v-16.7h12.2v3.7h-7.9v2.6h7.7v3.7h-7.7v2.8h7.9v3.7h-12.2z" fill="#8c817c"></path>
        <path d="m1328.3 576.3 2.3-3.2c1.2 1.2 3 2.2 5.3 2.2 1.5 0 2.4-.6 2.4-1.4 0-2.3-9.4-.4-9.4-6.9 0-2.8 2.4-5.3 6.6-5.3 2.7 0 5 .8 6.8 2.3l-2.3 3.1c-1.4-1.1-3.2-1.7-4.9-1.7-1.2 0-1.8.5-1.8 1.2 0 2.1 9.4.6 9.4 6.8 0 3.3-2.5 5.6-6.9 5.6-3.4-.1-5.8-1.1-7.5-2.7z" fill="#8c817c"></path>
        <path d="M1213.8 608.6v-16.7h7c5.2 0 9 3.1 9 8.3 0 5.2-3.8 8.3-9 8.3h-7zm11.6-8.3c0-2.6-1.5-4.6-4.6-4.6h-2.7v9.2h2.7c2.9 0 4.6-2.2 4.6-4.6z" fill="#8c817c"></path>
        <path d="M1230.5 608.6v-16.7h12.2v3.7h-7.9v2.6h7.7v3.7h-7.7v2.8h7.9v3.7h-12.2z" fill="#8c817c"></path>
        <path d="M1243.7 608.6v-16.7h8.3c3.7 0 5.8 2.5 5.8 5.5s-2 5.5-5.8 5.5h-4v5.6h-4.3zm9.8-11.1c0-1.1-.8-1.8-2-1.8h-3.5v3.6h3.5c1.1 0 2-.7 2-1.8z" fill="#8c817c"></path>
        <path d="m1269.6 608.6-.8-2.4h-6.6l-.8 2.4h-4.9l6.3-16.7h5.4l6.3 16.7h-4.9zm-4.1-12.4-2.1 6.3h4.2l-2.1-6.3z" fill="#8c817c"></path>
        <path d="m1283.5 608.6-2.8-5.6h-2.2v5.6h-4.3v-16.7h8.3c3.7 0 5.8 2.4 5.8 5.5 0 2.9-1.8 4.4-3.3 5l3.4 6.1h-4.9zm.5-11.1c0-1.1-1-1.8-2.1-1.8h-3.4v3.6h3.4c1.1 0 2.1-.7 2.1-1.8z" fill="#8c817c"></path>
        <path d="M1292.9 608.6v-12.9h-4.7V592h13.6v3.7h-4.6v12.9h-4.3z" fill="#8c817c"></path>
        <path d="M1317.1 608.6v-10.8l-4.2 10.8h-1.9l-4.2-10.8v10.8h-4.3v-16.7h6l3.5 9 3.5-9h6v16.7h-4.4z" fill="#8c817c"></path>
        <path d="M1322.9 608.6v-16.7h12.2v3.7h-7.9v2.6h7.7v3.7h-7.7v2.8h7.9v3.7h-12.2z" fill="#8c817c"></path>
        <path d="m1347.4 608.6-7-9.6v9.6h-4.3v-16.7h4.4l6.7 9.2v-9.2h4.3v16.7h-4.1z" fill="#8c817c"></path>
        <path d="M1356.8 608.6v-12.9h-4.7V592h13.6v3.7h-4.6v12.9h-4.3z" fill="#8c817c"></path>
        <path fill="none" stroke="#8c817c" stroke-width="2" stroke-miterlimit="10" d="M240.1 493v156.7H1V493h239.1z"></path>
        <path fill="none" stroke="#8c817c" stroke-width="2" stroke-miterlimit="10" d="M531.2 493v156.7H292.1V493h239.1z"></path>
        <path fill="none" stroke="#8c817c" stroke-width="2" stroke-miterlimit="10" d="M823.1 493v156.7H584V493h239.1z"></path>
        <path fill="none" stroke="#8c817c" stroke-width="2" stroke-miterlimit="10" d="M1116.4 493v156.7H877.3V493h239.1z"></path>
        <path d="M361.3 565.5v-16.7h12.2v3.7h-7.9v2.6h7.7v3.7h-7.7v6.6h-4.3z" fill="#8c817c"></path>
        <path d="M374.4 565.5v-16.7h4.3v16.7h-4.3z" fill="#8c817c"></path>
        <path d="m391.5 565.5-7-9.6v9.6h-4.3v-16.7h4.4l6.7 9.2v-9.2h4.3v16.7h-4.1z" fill="#8c817c"></path>
        <path d="m408.5 565.5-.8-2.4h-6.6l-.8 2.4h-4.9l6.3-16.7h5.4l6.3 16.7h-4.9zm-4.1-12.5-2.1 6.3h4.2l-2.1-6.3z" fill="#8c817c"></path>
        <path d="m424.4 565.5-7-9.6v9.6h-4.3v-16.7h4.4l6.7 9.2v-9.2h4.3v16.7h-4.1z" fill="#8c817c"></path>
        <path d="M429.2 557.1c0-5.1 3.9-8.6 9-8.6 4 0 6.2 2.3 7.3 4.5l-3.7 1.8c-.5-1.3-2-2.4-3.6-2.4-2.7 0-4.6 2.1-4.6 4.8 0 2.7 1.9 4.8 4.6 4.8 1.6 0 3-1.1 3.6-2.4l3.7 1.7c-1.1 2.1-3.2 4.5-7.3 4.5-5.1 0-9-3.5-9-8.7z" fill="#8c817c"></path>
        <path d="M445.9 565.5v-16.7h12.2v3.7h-7.9v2.6h7.7v3.7h-7.7v2.8h7.9v3.7h-12.2z" fill="#8c817c"></path>
        <path d="M336.4 595.5v-16.7h7c5.2 0 9 3.1 9 8.3 0 5.2-3.8 8.3-9 8.3h-7zm11.6-8.4c0-2.6-1.5-4.6-4.6-4.6h-2.7v9.2h2.7c2.9 0 4.6-2.1 4.6-4.6z" fill="#8c817c"></path>
        <path d="M353.1 595.5v-16.7h12.2v3.7h-7.9v2.6h7.7v3.7h-7.7v2.8h7.9v3.7h-12.2z" fill="#8c817c"></path>
        <path d="M366.3 595.5v-16.7h8.3c3.7 0 5.8 2.5 5.8 5.5s-2 5.5-5.8 5.5h-4v5.6h-4.3zm9.8-11.2c0-1.1-.9-1.8-2-1.8h-3.5v3.6h3.5c1.1 0 2-.6 2-1.8z" fill="#8c817c"></path>
        <path d="m392.2 595.5-.8-2.4h-6.6l-.8 2.4h-4.9l6.3-16.7h5.4l6.3 16.7h-4.9zm-4.1-12.5-2.1 6.3h4.2l-2.1-6.3z" fill="#8c817c"></path>
        <path d="m406.1 595.5-2.8-5.6h-2.2v5.6h-4.3v-16.7h8.3c3.7 0 5.8 2.4 5.8 5.5 0 2.9-1.8 4.4-3.3 5l3.4 6.1h-4.9zm.5-11.2c0-1.1-1-1.8-2.1-1.8h-3.4v3.6h3.4c1.1 0 2.1-.6 2.1-1.8z" fill="#8c817c"></path>
        <path d="M415.6 595.5v-12.9h-4.7v-3.7h13.6v3.7h-4.6v12.9h-4.3z" fill="#8c817c"></path>
        <path d="M439.7 595.5v-10.8l-4.2 10.8h-1.9l-4.2-10.8v10.8h-4.3v-16.7h6l3.5 9 3.5-9h6v16.7h-4.4z" fill="#8c817c"></path>
        <path d="M445.5 595.5v-16.7h12.2v3.7h-7.9v2.6h7.7v3.7h-7.7v2.8h7.9v3.7h-12.2z" fill="#8c817c"></path>
        <path d="m470.1 595.5-7-9.6v9.6h-4.3v-16.7h4.4l6.7 9.2v-9.2h4.3v16.7h-4.1z" fill="#8c817c"></path>
        <path d="M479.4 595.5v-12.9h-4.7v-3.7h13.6v3.7h-4.6v12.9h-4.3z" fill="#8c817c"></path>
        <path d="M629.4 565.5v-16.7h12.2v3.7h-7.9v2.6h7.7v3.7h-7.7v2.8h7.9v3.7h-12.2z" fill="#8c817c"></path>
        <path d="m654 565.5-7-9.6v9.6h-4.3v-16.7h4.4l6.7 9.2v-9.2h4.3v16.7H654z" fill="#8c817c"></path>
        <path d="M658.8 557.1c0-5.3 4-8.6 9-8.6 3.7 0 6 2 7.1 4l-3.6 1.9c-.6-1.1-1.9-2.1-3.5-2.1-2.7 0-4.6 2.1-4.6 4.8 0 2.7 1.9 4.8 4.6 4.8 1.2 0 2.5-.5 3.1-1v-1.3h-3.7v-3.8h8v6.6c-1.8 2-4.2 3.2-7.4 3.2-5 .2-9-3.2-9-8.5z" fill="#8c817c"></path>
        <path d="M676.2 565.5v-16.7h4.3v16.7h-4.3z" fill="#8c817c"></path>
        <path d="m693.3 565.5-7-9.6v9.6H682v-16.7h4.4l6.7 9.2v-9.2h4.3v16.7h-4.1z" fill="#8c817c"></path>
        <path d="M699 565.5v-16.7h12.2v3.7h-7.9v2.6h7.7v3.7h-7.7v2.8h7.9v3.7H699z" fill="#8c817c"></path>
        <path d="M712.2 565.5v-16.7h12.2v3.7h-7.9v2.6h7.7v3.7h-7.7v2.8h7.9v3.7h-12.2z" fill="#8c817c"></path>
        <path d="m734.7 565.5-2.8-5.6h-2.2v5.6h-4.3v-16.7h8.3c3.7 0 5.8 2.4 5.8 5.5 0 2.9-1.8 4.4-3.3 5l3.4 6.1h-4.9zm.5-11.2c0-1.1-1-1.8-2.1-1.8h-3.4v3.6h3.4c1.2 0 2.1-.6 2.1-1.8z" fill="#8c817c"></path>
        <path d="M740.5 565.5v-16.7h4.3v16.7h-4.3z" fill="#8c817c"></path>
        <path d="m757.6 565.5-7-9.6v9.6h-4.3v-16.7h4.4l6.7 9.2v-9.2h4.3v16.7h-4.1z" fill="#8c817c"></path>
        <path d="M762.4 557.1c0-5.3 4-8.6 9-8.6 3.7 0 6 2 7.1 4l-3.6 1.9c-.6-1.1-1.9-2.1-3.5-2.1-2.7 0-4.6 2.1-4.6 4.8 0 2.7 1.9 4.8 4.6 4.8 1.2 0 2.5-.5 3.1-1v-1.3h-3.7v-3.8h8v6.6c-1.8 2-4.2 3.2-7.4 3.2-4.9.2-9-3.2-9-8.5z" fill="#8c817c"></path>
        <path d="M628.4 595.5v-16.7h7c5.2 0 9 3.1 9 8.3 0 5.2-3.8 8.3-9 8.3h-7zm11.6-8.4c0-2.6-1.5-4.6-4.6-4.6h-2.7v9.2h2.7c2.9 0 4.6-2.1 4.6-4.6z" fill="#8c817c"></path>
        <path d="M645 595.5v-16.7h12.2v3.7h-7.9v2.6h7.7v3.7h-7.7v2.8h7.9v3.7H645z" fill="#8c817c"></path>
        <path d="M658.3 595.5v-16.7h8.3c3.7 0 5.8 2.5 5.8 5.5s-2 5.5-5.8 5.5h-4v5.6h-4.3zm9.7-11.2c0-1.1-.9-1.8-2-1.8h-3.5v3.6h3.5c1.2 0 2-.6 2-1.8z" fill="#8c817c"></path>
        <path d="m684.2 595.5-.8-2.4h-6.6l-.8 2.4h-4.9l6.3-16.7h5.4l6.3 16.7h-4.9zM680 583l-2.1 6.3h4.2L680 583z" fill="#8c817c"></path>
        <path d="m698.1 595.5-2.8-5.6h-2.2v5.6h-4.3v-16.7h8.3c3.7 0 5.8 2.4 5.8 5.5 0 2.9-1.8 4.4-3.3 5l3.4 6.1h-4.9zm.4-11.2c0-1.1-1-1.8-2.1-1.8H693v3.6h3.4c1.2 0 2.1-.6 2.1-1.8z" fill="#8c817c"></path>
        <path d="M707.5 595.5v-12.9h-4.7v-3.7h13.6v3.7h-4.6v12.9h-4.3z" fill="#8c817c"></path>
        <path d="M731.6 595.5v-10.8l-4.2 10.8h-1.9l-4.2-10.8v10.8H717v-16.7h6l3.5 9 3.5-9h6v16.7h-4.4z" fill="#8c817c"></path>
        <path d="M737.4 595.5v-16.7h12.2v3.7h-7.9v2.6h7.7v3.7h-7.7v2.8h7.9v3.7h-12.2z" fill="#8c817c"></path>
        <path d="m762 595.5-7-9.6v9.6h-4.3v-16.7h4.4l6.7 9.2v-9.2h4.3v16.7H762z" fill="#8c817c"></path>
        <path d="M771.4 595.5v-12.9h-4.7v-3.7h13.6v3.7h-4.6v12.9h-4.3z" fill="#8c817c"></path>
        <path d="M921.1 557.1c0-5.1 3.9-8.6 9-8.6 4 0 6.2 2.3 7.3 4.5l-3.7 1.8c-.5-1.3-2-2.4-3.6-2.4-2.7 0-4.6 2.1-4.6 4.8 0 2.7 1.9 4.8 4.6 4.8 1.6 0 3-1.1 3.6-2.4l3.7 1.7c-1.1 2.1-3.2 4.5-7.3 4.5-5.1 0-9-3.5-9-8.7z" fill="#8c817c"></path>
        <path d="M936.9 557.1c0-5.1 3.8-8.6 8.9-8.6 5.1 0 8.9 3.5 8.9 8.6s-3.8 8.6-8.9 8.6c-5.1.1-8.9-3.5-8.9-8.6zm13.5 0c0-2.7-1.8-4.8-4.5-4.8-2.8 0-4.5 2.1-4.5 4.8 0 2.7 1.8 4.8 4.5 4.8 2.7.1 4.5-2.1 4.5-4.8z" fill="#8c817c"></path>
        <path d="M970 565.5v-10.8l-4.2 10.8h-1.9l-4.2-10.8v10.8h-4.3v-16.7h6l3.5 9 3.5-9h6v16.7H970z" fill="#8c817c"></path>
        <path d="M990.5 565.5v-10.8l-4.2 10.8h-1.9l-4.2-10.8v10.8h-4.3v-16.7h6l3.5 9 3.5-9h6v16.7h-4.4z" fill="#8c817c"></path>
        <path d="M996.3 565.5v-16.7h12.2v3.7h-7.9v2.6h7.7v3.7h-7.7v2.8h7.9v3.7h-12.2z" fill="#8c817c"></path>
        <path d="m1018.8 565.5-2.8-5.6h-2.2v5.6h-4.3v-16.7h8.3c3.7 0 5.8 2.4 5.8 5.5 0 2.9-1.8 4.4-3.3 5l3.4 6.1h-4.9zm.5-11.2c0-1.1-1-1.8-2.1-1.8h-3.4v3.6h3.4c1.1 0 2.1-.6 2.1-1.8z" fill="#8c817c"></path>
        <path d="M1023.7 557.1c0-5.1 3.9-8.6 9-8.6 4 0 6.2 2.3 7.3 4.5l-3.7 1.8c-.5-1.3-2-2.4-3.6-2.4-2.7 0-4.6 2.1-4.6 4.8 0 2.7 1.9 4.8 4.6 4.8 1.6 0 3-1.1 3.6-2.4l3.7 1.7c-1.1 2.1-3.2 4.5-7.3 4.5-5.1 0-9-3.5-9-8.7z" fill="#8c817c"></path>
        <path d="M1040.3 565.5v-16.7h4.3v16.7h-4.3z" fill="#8c817c"></path>
        <path d="m1057.4 565.5-.8-2.4h-6.6l-.8 2.4h-4.9l6.3-16.7h5.4l6.3 16.7h-4.9zm-4.1-12.5-2.1 6.3h4.2l-2.1-6.3z" fill="#8c817c"></path>
        <path d="M1062 565.5v-16.7h4.3v12.9h6.7v3.7h-11z" fill="#8c817c"></path>
        <path d="M921.6 595.5v-16.7h7c5.2 0 9 3.1 9 8.3 0 5.2-3.8 8.3-9 8.3h-7zm11.6-8.4c0-2.6-1.5-4.6-4.6-4.6h-2.7v9.2h2.7c2.9 0 4.6-2.1 4.6-4.6z" fill="#8c817c"></path>
        <path d="M938.3 595.5v-16.7h12.2v3.7h-7.9v2.6h7.7v3.7h-7.7v2.8h7.9v3.7h-12.2z" fill="#8c817c"></path>
        <path d="M951.5 595.5v-16.7h8.3c3.7 0 5.8 2.5 5.8 5.5s-2 5.5-5.8 5.5h-4v5.6h-4.3zm9.8-11.2c0-1.1-.8-1.8-2-1.8h-3.5v3.6h3.5c1.1 0 2-.6 2-1.8z" fill="#8c817c"></path>
        <path d="m977.4 595.5-.8-2.4H970l-.8 2.4h-4.9l6.3-16.7h5.4l6.3 16.7h-4.9zm-4.1-12.5-2.1 6.3h4.2l-2.1-6.3z" fill="#8c817c"></path>
        <path d="m991.3 595.5-2.8-5.6h-2.2v5.6H982v-16.7h8.3c3.7 0 5.8 2.4 5.8 5.5 0 2.9-1.8 4.4-3.3 5l3.4 6.1h-4.9zm.5-11.2c0-1.1-1-1.8-2.1-1.8h-3.4v3.6h3.4c1.1 0 2.1-.6 2.1-1.8z" fill="#8c817c"></path>
        <path d="M1000.8 595.5v-12.9h-4.7v-3.7h13.6v3.7h-4.6v12.9h-4.3z" fill="#8c817c"></path>
        <path d="M1024.9 595.5v-10.8l-4.2 10.8h-1.9l-4.2-10.8v10.8h-4.3v-16.7h6l3.5 9 3.5-9h6v16.7h-4.4z" fill="#8c817c"></path>
        <path d="M1030.7 595.5v-16.7h12.2v3.7h-7.9v2.6h7.7v3.7h-7.7v2.8h7.9v3.7h-12.2z" fill="#8c817c"></path>
        <path d="m1055.3 595.5-7-9.6v9.6h-4.3v-16.7h4.4l6.7 9.2v-9.2h4.3v16.7h-4.1z" fill="#8c817c"></path>
        <path d="M1064.6 595.5v-12.9h-4.7v-3.7h13.6v3.7h-4.6v12.9h-4.3z" fill="#8c817c"></path>
        <path fill="none" stroke="#8c817c" stroke-width="2" stroke-miterlimit="10" d="M1408.5 493v156.7h-239.1V493h239.1z"></path>
        <path fill="none" stroke="#898b8d" stroke-width="3.963" stroke-linecap="round" stroke-linejoin="round" stroke-dasharray="0,11.4888" d="M411.9 478.7v-44.2"></path>
        <path fill="none" stroke="#898b8d" stroke-width="3.963" stroke-linecap="round" stroke-linejoin="round" stroke-dasharray="0,11.4888" d="M702.5 478.7v-44.2"></path>
        <path fill="none" stroke="#898b8d" stroke-width="3.963" stroke-linecap="round" stroke-linejoin="round" stroke-dasharray="0,11.4888" d="M996.8 478.7v-44.2"></path>
        <path fill="none" stroke="#898b8d" stroke-width="3.963" stroke-linecap="round" stroke-linejoin="round" stroke-dasharray="0,11.4888" d="M1282.2 478.7v-44.2"></path>
        <path fill="none" stroke="#898b8d" stroke-width="3.963" stroke-linecap="round" stroke-linejoin="round" stroke-dasharray="0,11.4888" d="M120.9 478.7v-44.2"></path>
        <path fill="none" stroke="#898b8d" stroke-width="3.963" stroke-linecap="round" stroke-linejoin="round" stroke-dasharray="0,11.4888" d="M120.9 423.9h1165.8"></path>
    </g>
</svg>